<svg fill="none" height="160" viewBox="0 0 160 160" width="160" xmlns="http://www.w3.org/2000/svg" xmlns:xlink="http://www.w3.org/1999/xlink"><linearGradient id="a"><stop offset="0" stop-color="#7b217e"/><stop offset=".432292" stop-color="#7b217e"/><stop offset="1" stop-color="#18499a"/></linearGradient><linearGradient id="b" gradientUnits="userSpaceOnUse" x1="22.8574" x2="123.479" xlink:href="#a" y1="62.8571" y2="114.96"/><linearGradient id="c" gradientUnits="userSpaceOnUse" x1="22.8574" x2="123.479" xlink:href="#a" y1="134.286" y2="186.389"/><linearGradient id="d" gradientUnits="userSpaceOnUse" x1="0" x2="137.881" xlink:href="#a" y1="94.2857" y2="169.253"/><linearGradient id="e" gradientUnits="userSpaceOnUse" x1="37.1426" x2="130.007" xlink:href="#a" y1="0" y2="16.2293"/><path d="m137.143 71.4286c0-4.7339-3.837-8.5715-8.571-8.5715h-97.1431c-4.7339 0-8.5715 3.8376-8.5715 8.5715v17.1428h114.2856zm-97.1427 2.8571h-5.7143v5.7143c0 1.578-1.2792 2.8571-2.8571 2.8571-1.578 0-2.8572-1.2791-2.8572-2.8571v-8.5714c0-1.578 1.2792-2.8572 2.8572-2.8572h8.5714c1.5779 0 2.8571 1.2792 2.8571 2.8572 0 1.5779-1.2792 2.8571-2.8571 2.8571z" fill="url(#b)"/><path d="m22.8574 151.429c0 4.733 3.8376 8.571 8.5715 8.571h97.1431c4.734 0 8.571-3.838 8.571-8.571v-17.143h-114.2856z" fill="url(#c)"/><path d="m157.143 94.2857h-154.28586c-1.57795 0-2.85714 1.2792-2.85714 2.8572v28.5711c0 1.578 1.27919 2.857 2.85714 2.857h154.28586c1.578 0 2.857-1.279 2.857-2.857v-28.5711c0-1.578-1.279-2.8572-2.857-2.8572zm-129.843 20.4803c1.3129.875 1.6672 2.65.7914 3.963-.8757 1.312-2.65 1.667-3.9628.791l-4.1286-2.754v3.234c0 1.578-1.2792 2.857-2.8571 2.857-1.578 0-2.8572-1.279-2.8572-2.857v-3.234l-4.1286 2.754c-1.31282.876-3.08705.521-3.96282-.791-.87576-1.313-.52143-3.088.79143-3.963l5.01429-3.337-5.01429-3.338c-1.31286-.875-1.66719-2.65-.79143-3.962.87577-1.313 2.65-1.668 3.96282-.792l4.1286 2.754v-3.234c0-1.578 1.2792-2.857 2.8572-2.857 1.5779 0 2.8571 1.279 2.8571 2.857v3.234l4.1286-2.754c.8492-.566 1.9362-.637 2.8515-.185.9152.453 1.5197 1.359 1.5857 2.378.066 1.018-.4165 1.995-1.2658 2.561l-5.0143 3.338zm31.4286 0c1.3128.875 1.6671 2.65.7914 3.963-.8758 1.312-2.65 1.667-3.9629.791l-4.1285-2.754v3.234c0 1.578-1.2792 2.857-2.8572 2.857-1.5779 0-2.8571-1.279-2.8571-2.857v-3.234l-4.1286 2.754c-1.3129.876-3.0871.521-3.9629-.791-.8757-1.313-.5214-3.088.7915-3.963l5.0143-3.337-5.0058-3.338c-1.3128-.875-1.6672-2.65-.7914-3.962.8758-1.313 2.65-1.668 3.9629-.792l4.12 2.754v-3.234c0-1.578 1.2792-2.857 2.8571-2.857 1.578 0 2.8572 1.279 2.8572 2.857v3.234l4.1285-2.754c.8493-.566 1.9363-.637 2.8515-.185.9153.453 1.5198 1.359 1.5858 2.378.0659 1.018-.4166 1.995-1.2658 2.561l-5.0143 3.338zm31.4285 0c1.3129.875 1.6672 2.65.7914 3.963-.8757 1.312-2.65 1.667-3.9628.791l-4.1286-2.754v3.234c0 1.578-1.2792 2.857-2.8571 2.857-1.578 0-2.8572-1.279-2.8572-2.857v-3.234l-4.1285 2.754c-1.3129.876-3.0871.521-3.9629-.791-.8758-1.313-.5214-3.088.7914-3.963l5.0143-3.337-5.0057-3.338c-1.3129-.875-1.6672-2.65-.7914-3.962.8757-1.313 2.65-1.668 3.9628-.792l4.12 2.754v-3.234c0-1.578 1.2792-2.857 2.8572-2.857 1.5779 0 2.8571 1.279 2.8571 2.857v3.234l4.1286-2.754c.8493-.566 1.9363-.637 2.8515-.185.9153.453 1.5197 1.359 1.5857 2.378.066 1.018-.4165 1.995-1.2658 2.561l-5.0143 3.338zm31.4289 0c1.313.875 1.667 2.65.791 3.963-.876 1.312-2.65 1.667-3.963.791l-4.128-2.754v3.234c0 1.578-1.28 2.857-2.857 2.857-1.578 0-2.858-1.279-2.858-2.857v-3.234l-4.128 2.754c-1.313.876-3.087.521-3.963-.791-.8758-1.313-.5215-3.088.791-3.963l5.015-3.337-5.006-3.338c-1.3129-.875-1.6672-2.65-.791-3.962.875-1.313 2.65-1.668 3.962-.792l4.12 2.754v-3.234c0-1.578 1.28-2.857 2.858-2.857 1.577 0 2.857 1.279 2.857 2.857v3.234l4.128-2.754c.85-.566 1.937-.637 2.852-.185.915.453 1.519 1.359 1.585 2.378.066 1.018-.416 1.995-1.265 2.561l-5.015 3.338zm29.843 8.091h-17.143c-1.578 0-2.857-1.279-2.857-2.857s1.279-2.857 2.857-2.857h17.143c1.577 0 2.857 1.279 2.857 2.857s-1.28 2.857-2.857 2.857z" fill="url(#d)"/><path d="m48.5712 42.8572c0-17.3576 14.071-31.4286 31.4285-31.4286 17.3576 0 31.4283 14.071 31.4283 31.4286v14.2857h11.429v-14.2857c0-23.6694-19.188-42.8572-42.8573-42.8572s-42.8571 19.1878-42.8571 42.8572v14.2857h11.4286z" fill="url(#e)"/></svg>