<svg fill="none" height="22" viewBox="0 0 22 22" width="22" xmlns="http://www.w3.org/2000/svg" xmlns:xlink="http://www.w3.org/1999/xlink"><linearGradient id="a" gradientUnits="userSpaceOnUse" x1=".84375" x2="23.2191" y1=".84375" y2="3.45067"><stop offset="0" stop-color="#7b217e"/><stop offset=".432292" stop-color="#7b217e"/><stop offset="1" stop-color="#18499a"/></linearGradient><path d="m9.78125 2.46875v5.6875c0 .43098-.17121.8443-.47595 1.14905-.30475.30474-.71807.47595-1.14905.47595h-5.6875c-.43098 0-.8443-.17121-1.14905-.47595-.30475-.30475-.47595-.71807-.47595-1.14905v-5.6875c0-.43098.1712-.8443.47595-1.14905s.71807-.47595 1.14905-.47595h5.6875c.43098 0 .8443.1712 1.14905.47595.30474.30475.47595.71807.47595 1.14905zm9.74995-1.625h-5.6874c-.431 0-.8444.1712-1.1491.47595s-.4759.71807-.4759 1.14905v5.6875c0 .43098.1712.8443.4759 1.14905.3047.30474.7181.47595 1.1491.47595h5.6874c.431 0 .8444-.17121 1.1491-.47595.3047-.30475.4759-.71807.4759-1.14905v-5.6875c0-.43098-.1712-.8443-.4759-1.14905s-.7181-.47595-1.1491-.47595zm-11.37495 11.37505h-5.6875c-.43098 0-.8443.1712-1.14905.4759s-.47595.7181-.47595 1.1491v5.6874c0 .431.1712.8444.47595 1.1491s.71807.4759 1.14905.4759h5.6875c.43098 0 .8443-.1712 1.14905-.4759.30474-.3047.47595-.7181.47595-1.1491v-5.6874c0-.431-.17121-.8444-.47595-1.1491-.30475-.3047-.71807-.4759-1.14905-.4759zm8.53125 0c-.8838 0-1.7478.262-2.4827.7531-.7349.491-1.3077 1.1889-1.6459 2.0055-.3382.8165-.4267 1.7151-.2543 2.5819.1724.8669.598 1.6631 1.223 2.2881.625.6249 1.4212 1.0506 2.2881 1.223.8668.1724 1.7654.0839 2.5819-.2543.8166-.3382 1.5145-.911 2.0055-1.6459.4911-.7349.7531-1.5989.7531-2.4827 0-1.1852-.4708-2.3218-1.3088-3.1599-.8381-.838-1.9747-1.3088-3.1599-1.3088z" fill="url(#a)"/></svg>