<svg fill="none" height="22" viewBox="0 0 22 22" width="22" xmlns="http://www.w3.org/2000/svg" xmlns:xlink="http://www.w3.org/1999/xlink"><linearGradient id="a"><stop offset="0" stop-color="#7b217e"/><stop offset=".432292" stop-color="#7b217e"/><stop offset="1" stop-color="#18499a"/></linearGradient><linearGradient id="b" gradientUnits="userSpaceOnUse" x1="5.79999" x2="17.2562" xlink:href="#a" y1=".080078" y2="1.41482"/><linearGradient id="c" gradientUnits="userSpaceOnUse" x1=".079956" x2="23.0874" xlink:href="#a" y1="11.52" y2="17.1493"/><path d="m11 10.4801c2.8719 0 5.2-2.32814 5.2-5.20002s-2.3281-5.2000019-5.2-5.2000019c-2.87189 0-5.20001 2.3281219-5.20001 5.2000019s2.32812 5.20002 5.20001 5.20002z" fill="url(#b)"/><path d="m12.1024 11.52h-2.20479c-1.29336.0041-2.57326.2629-3.76661.7616-1.19334.4988-2.27677 1.2277-3.18842 2.1451-.91165.9175-1.63367 2.0055-2.124832 3.202-.491161 1.1964-.7418461 2.478-.7377424 3.7713 0 .1379.0547854.2702.1523044.3677s.229783.1523.367696.1523h20.799994c.1444-.0131.2783-.0806.3748-.1887.0966-.1081.1485-.2488.1452-.3937-.0055-2.6021-1.0416-5.096-2.8816-6.936-1.8399-1.84-4.3339-2.8761-6.936-2.8816z" fill="url(#c)"/></svg>