<svg fill="none" height="24" viewBox="0 0 24 24" width="24" xmlns="http://www.w3.org/2000/svg" xmlns:xlink="http://www.w3.org/1999/xlink"><linearGradient id="a" gradientUnits="userSpaceOnUse" x1="0" x2="26.4373" y1="0" y2="3.08017"><stop offset="0" stop-color="#7b217e"/><stop offset=".432292" stop-color="#7b217e"/><stop offset="1" stop-color="#18499a"/></linearGradient><path d="m22.8 1.2h-3.6v-1.2h-14.4v1.2h-3.6c-.72 0-1.2.48-1.2 1.2v2.88c0 2.76 2.04 5.04 4.8 5.4v.12c0 3.48 2.4 6.36 5.64 7.08l-.84 2.52h-2.76c-.48 0-.96.36-1.08.84l-.96 2.76h14.4l-.96-2.76c-.12-.48-.6-.84-1.08-.84h-2.76l-.84-2.52c3.24-.72 5.64-3.6 5.64-7.08v-.12c2.76-.36 4.8-2.64 4.8-5.4v-2.88c0-.72-.48-1.2-1.2-1.2zm-18 7.08c-1.32-.36-2.4-1.56-2.4-3v-1.68h2.4zm9.6 3.72-2.4-1.32-2.4 1.32.6-2.4-1.8-2.4h2.52l1.08-2.4 1.08 2.4h2.52l-1.8 2.4zm7.2-6.72c0 1.44-1.08 2.76-2.4 3v-4.68h2.4z" fill="url(#a)"/></svg>