<svg fill="none" height="26" viewBox="0 0 26 26" width="26" xmlns="http://www.w3.org/2000/svg" xmlns:xlink="http://www.w3.org/1999/xlink"><linearGradient id="a" gradientUnits="userSpaceOnUse" x1="0" x2="28.6148" y1=".414551" y2="3.85821"><stop offset="0" stop-color="#7b217e"/><stop offset=".432292" stop-color="#7b217e"/><stop offset="1" stop-color="#18499a"/></linearGradient><path d="m25.6743 12.6956c.4713-.5183.4258-1.3128-.1016-1.774l-11.6198-10.167375c-.5274-.461228-1.373-.451566-1.8893.021781l-11.659226 10.687594c-.516316.4734-.541657 1.2669-.056107 1.7716l.292314.3044c.484959.5047 1.268839.5649 1.749729.134l.87135-.7803v11.424c0 .7009.56793 1.2684 1.26833 1.2684h4.5448c.7004 0 1.26831-.5675 1.26831-1.2684v-7.9922h5.797v7.9922c-.0101.7004.491 1.2679 1.1914 1.2679h4.8164c.7004 0 1.2683-.5675 1.2683-1.2684v-11.2627s.2407.2109.5376.4718c.2964.2605.9189.0517 1.3902-.4672z" fill="url(#a)"/></svg>