<svg fill="none" height="163" viewBox="0 0 172 163" width="172" xmlns="http://www.w3.org/2000/svg" xmlns:xlink="http://www.w3.org/1999/xlink"><linearGradient id="a"><stop offset="0" stop-color="#7b217e"/><stop offset=".432292" stop-color="#7b217e"/><stop offset="1" stop-color="#18499a"/></linearGradient><linearGradient id="b" gradientUnits="userSpaceOnUse" x1="3.35889" x2="68.5479" xlink:href="#a" y1="70.6453" y2="78.9266"/><linearGradient id="c" gradientUnits="userSpaceOnUse" x1="84.5068" x2="144.394" xlink:href="#a" y1="10.8694" y2="15.4686"/><linearGradient id="d" gradientUnits="userSpaceOnUse" x1="33.5952" x2="74.8735" xlink:href="#a" y1="112.275" y2="116.08"/><linearGradient id="e" gradientUnits="userSpaceOnUse" x1="42.5317" x2="136.889" xlink:href="#a" y1="17.1709" y2="27.8161"/><path d="m42.5314 70.6453 20.1563 34.9117c-9.1504 5.283-19.7836 11.421-29.0928 16.796-9.6411 5.567-21.9671 2.265-27.53374-7.377-5.532474-9.576-2.32401-21.9344 7.37754-27.5338z" fill="url(#b)"/><path d="m137.552 81.9071c2.55 4.4131-.558 9.9495-5.654 10.0741l-3.78.7428-.084-.4265-43.245-74.9049-.2822-.2217 2.4185-3.0812c2.6573-4.35277 9.0034-4.27928 11.5531.1378 67.1176 116.2445-17.5566-30.4116 39.0736 67.6796z" fill="url(#c)"/><path d="m69.5275 144.281c2.7846 4.818 1.1324 10.981-3.6888 13.766-4.8134 2.784-10.9888 1.127-13.7669-3.688l-18.4766-32.006 17.4557-10.078c.1601.278 18.449 31.958 18.4766 32.006z" fill="url(#d)"/><path d="m126.91 36.5949 6.718 11.637-8.277 12.5373-13.438-23.2741z" fill="#e9eef0"/><path d="m128.034 92.2975.084.4265-65.43 12.833-20.1563-34.9117 41.9752-53.4744.2821.2217z" fill="url(#e)"/><g fill="#c4c4c4"><path d="m46.0117 103.548c1.6062-.927 2.156-2.983 1.2296-4.5895-.9278-1.6049-2.9828-2.1561-4.589-1.2296-1.6062.9278-2.1573 2.9841-1.2296 4.5891.9265 1.606 2.9828 2.157 4.589 1.23z"/><path d="m32.2447 126.734 16.9176 29.304c3.6507 6.33 11.8628 8.674 18.3572 4.919 6.4261-3.713 8.6346-11.924 4.917-18.355l-10.0781-17.459 8.7278-5.039c1.6062-.929 2.1573-2.983 1.2296-4.589l-4.3685-7.566c.5209-.101 3.9459-.773 64.3447-12.6215 7.467-.4055 11.941-8.5716 8.169-15.1001l-11.164-19.3374 7.134-10.8064c.701-1.063.743-2.429.107-3.5313l-6.719-11.6371c-.637-1.1023-1.845-1.7479-3.112-1.6731l-12.924.7755-12.394-21.4685c-1.7954-3.11004-5.0117-4.99313-8.602-5.03775-.0433-.00131-.0853-.00131-.1286-.00131-3.4696 0-6.6191 1.72693-8.4851 4.64666l-43.8845 55.9048-28.5297 16.4714c-11.221129 6.476-15.10803 20.8711-8.60711 32.1231 5.93927 10.288 18.46081 14.335 29.09271 10.078zm34.3746 19.228c1.8555 3.21.7571 7.317-2.4618 9.177-3.2295 1.867-7.3421.72-9.1766-2.459l-16.7969-29.097 11.6371-6.719c19.4397 33.675 16.4858 28.559 16.7982 29.098zm-7.6203-26.639-3.3594-5.818 5.8186-3.359 3.3593 5.818zm66.039-79.2506 4.643 8.0415-4.14 6.2699-8.002-13.8613zm-35.2456-24.2322c.9015-1.4749 2.3319-1.6272 2.9119-1.6114.5734.0066 2.0025.185 2.8646 1.6784l39.0741 67.6796c1.273 2.2032-.275 4.9734-2.827 5.0364-.458.0105-.669.0932-1.842.3123l-41.3325-71.5901c.8674-1.1154.979-1.223 1.1509-1.5052zm-5.6217 7.2004 38.8333 67.2623-58.6077 11.4951-17.8204-30.8653zm-75.20017 90.2554c-1.47498-2.552-2.25446-5.45-2.25446-8.381 0-5.9919 3.22028-11.5716 8.40243-14.5636l26.1834-15.1171 16.7969 29.0927-26.1835 15.118c-8.0218 4.63-18.3138 1.872-22.94477-6.149z"/><path d="m35.604 105.677c-.9278-1.606-2.9828-2.157-4.589-1.229l-5.8185 3.359c-1.6036.927-3.6626.374-4.589-1.23-.9278-1.606-2.9828-2.157-4.589-1.229s-2.1573 2.983-1.2296 4.589c2.765 4.79 8.9326 6.479 13.7669 3.689l5.8186-3.36c1.6062-.928 2.1573-2.981 1.2296-4.589z"/><path d="m167.007 14.6959-18.719 10.4167c-1.621.9029-2.205 2.9487-1.302 4.5693.9 1.6193 2.944 2.2059 4.569 1.3018l18.718-10.4167c1.622-.9029 2.205-2.9487 1.302-4.5693-.902-1.622-2.948-2.2046-4.568-1.3018z"/><path d="m165.043 49.4891-12.979-3.4774c-1.793-.4803-3.635.5826-4.115 2.3751-.481 1.7926.584 3.6336 2.376 4.1139l12.981 3.4775c1.803.4842 3.636-.5958 4.114-2.3752.48-1.7925-.584-3.6349-2.377-4.1139z"/><path d="m132.426 2.49066-3.481 12.98084c-.48 1.7925.583 3.6336 2.375 4.1152 1.791.479 3.634-.5813 4.115-2.3752l3.48-12.98079c.481-1.79254-.582-3.634946-2.375-4.115232-1.791-.480285-3.633.582641-4.114 2.375182z"/></g></svg>