<svg width="24" height="24" viewBox="0 0 24 24" fill="none" xmlns="http://www.w3.org/2000/svg">
<path d="M20.0437 3.95625C18.4528 2.36554 16.426 1.28229 14.2194 0.84348C12.0129 0.404667 9.72588 0.629998 7.64744 1.49098C5.569 2.35196 3.79253 3.80992 2.54268 5.6805C1.29283 7.55109 0.625732 9.75028 0.625732 12C0.625732 14.2497 1.29283 16.4489 2.54268 18.3195C3.79253 20.1901 5.569 21.648 7.64744 22.509C9.72588 23.37 12.0129 23.5953 14.2194 23.1565C16.426 22.7177 18.4528 21.6344 20.0437 20.0437C21.1 18.9875 21.938 17.7334 22.5097 16.3533C23.0815 14.9731 23.3757 13.4939 23.3757 12C23.3757 10.5061 23.0815 9.02686 22.5097 7.6467C21.938 6.26655 21.1 5.01253 20.0437 3.95625ZM16.0624 14.8762C16.1436 14.9522 16.2083 15.0441 16.2525 15.1461C16.2968 15.2481 16.3196 15.3582 16.3196 15.4694C16.3196 15.5806 16.2968 15.6906 16.2525 15.7926C16.2083 15.8946 16.1436 15.9865 16.0624 16.0625C15.9865 16.1378 15.8964 16.1974 15.7975 16.2378C15.6985 16.2782 15.5925 16.2987 15.4855 16.2981C15.2724 16.2972 15.0681 16.2126 14.9168 16.0625L11.9999 13.1456L9.12366 16.0625C8.97232 16.2126 8.76806 16.2972 8.55491 16.2981C8.44798 16.2987 8.34198 16.2782 8.24298 16.2378C8.14399 16.1974 8.05395 16.1378 7.97803 16.0625C7.8267 15.9103 7.74176 15.7043 7.74176 15.4897C7.74176 15.275 7.8267 15.0691 7.97803 14.9169L10.8543 12L7.97803 9.12374C7.84492 8.96831 7.77537 8.76838 7.78327 8.56389C7.79117 8.3594 7.87594 8.16543 8.02064 8.02073C8.16534 7.87602 8.35931 7.79125 8.5638 7.78335C8.76829 7.77546 8.96823 7.84501 9.12366 7.97812L11.9999 10.8544L14.8762 7.97812C14.9514 7.90023 15.0412 7.83792 15.1405 7.79474C15.2398 7.75157 15.3466 7.72838 15.4549 7.72649C15.5632 7.7246 15.6708 7.74406 15.7715 7.78375C15.8723 7.82344 15.9642 7.88258 16.0421 7.95781C16.12 8.03303 16.1823 8.12286 16.2255 8.22216C16.2686 8.32147 16.2918 8.4283 16.2937 8.53657C16.2956 8.64484 16.2761 8.75241 16.2365 8.85316C16.1968 8.95391 16.1376 9.04585 16.0624 9.12374L13.1455 12L16.0624 14.8762Z" fill="#18499A"/>
</svg>
