<svg fill="none" height="16" viewBox="0 0 16 16" width="16" xmlns="http://www.w3.org/2000/svg"><g fill="#18499a"><path d="m0 7.53125h3.32456c.03078-1.17359.17428-2.27922.4136-3.28125h-2.765566c-.529313.98797-.9034065 2.10125-.972594 3.28125z"/><path d="m3.32456 8.46875h-3.32456c.0691875 1.18.443281 2.29325.972594 3.28125h2.765596c-.23931-1.002-.38285-2.10766-.41363-3.28125z"/><path d="m7.53141 7.53125v-3.28125h-2.82378c-.25657.993-.41194 2.10869-.44591 3.28125z"/><path d="m7.5309 3.3125v-3.3125c-1.02647.286687-1.93572 1.59822-2.53578 3.3125z"/><path d="m7.5309 16v-3.3125h-2.53578c.60006 1.7143 1.50931 3.0258 2.53578 3.3125z"/><path d="m8.46875 0v3.3125h2.53575c-.6-1.71428-1.50928-3.025813-2.53575-3.3125z"/><path d="m11.7384 7.53125c-.034-1.17256-.1893-2.28825-.4459-3.28125h-2.82375v3.28125z"/><path d="m7.53141 8.46875h-3.26969c.034 1.17262.18934 2.28825.44591 3.28125h2.82378z"/><path d="m11.9999 3.3125h2.4297c-.9703-1.32728-2.3363-2.448596-3.9276-2.976784.6115.722004 1.1231 1.807724 1.4979 2.976784z"/><path d="m4 12.6875h-2.42969c.97028 1.3273 2.33625 2.4486 3.92763 2.9768-.6116-.722-1.12313-1.8077-1.49794-2.9768z"/><path d="m4 3.3125c.37478-1.16906.88634-2.25478 1.49791-2.976784-1.59135.528188-2.95732 1.649504-3.9276 2.976784z"/><path d="m11.9999 12.6875c-.3748 1.1691-.8864 2.2548-1.4979 2.9768 1.5913-.5282 2.9573-1.6495 3.9276-2.9768z"/><path d="m8.46875 8.46875v3.28125h2.82375c.2566-.993.412-2.10863.4459-3.28125z"/><path d="m12.2617 4.25c.2393 1.00203.3828 2.10766.4136 3.28125h3.3246c-.0692-1.18-.4433-2.29328-.9726-3.28125z"/><path d="m8.46875 12.6875v3.3125c1.02647-.2867 1.93575-1.5982 2.53575-3.3125z"/><path d="m15.9999 8.46875h-3.3246c-.0308 1.17359-.1743 2.27925-.4136 3.28125h2.7656c.5293-.988.9034-2.10125.9726-3.28125z"/></g></svg>