<svg width="22" height="22" viewBox="0 0 22 22" fill="none" xmlns="http://www.w3.org/2000/svg">
<path d="M17.4166 11.0423C16.9097 11.0423 16.5 11.453 16.5 11.9589V19.2923C16.5 19.7973 16.0893 20.2089 15.5834 20.2089H2.75C2.24394 20.2089 1.83339 19.7973 1.83339 19.2923V6.45889C1.83339 5.95384 2.24394 5.54228 2.75 5.54228H10.0834C10.5903 5.54228 11 5.13156 11 4.62567C11 4.11961 10.5903 3.70889 10.0834 3.70889H2.75C1.23384 3.70889 0 4.94273 0 6.45889V19.2923C0 20.8084 1.23384 22.0423 2.75 22.0423H15.5834C17.0995 22.0423 18.3334 20.8084 18.3334 19.2923V11.9589C18.3334 11.452 17.9235 11.0423 17.4166 11.0423Z" fill="white"/>
<path d="M8.59454 10.2072C8.53042 10.2714 8.48729 10.3529 8.46899 10.4409L7.82093 13.6823C7.79072 13.8326 7.83839 13.9875 7.94648 14.0966C8.0336 14.1837 8.15092 14.2304 8.2711 14.2304C8.3003 14.2304 8.33068 14.2277 8.3609 14.2213L11.6013 13.5732C11.6911 13.5548 11.7727 13.5118 11.836 13.4475L19.0886 6.19487L15.8482 2.95459L8.59454 10.2072Z" fill="white"/>
<path d="M21.3289 0.713337C20.4352 -0.180447 18.9814 -0.180447 18.0884 0.713337L16.8198 1.98192L20.0603 5.22237L21.3289 3.95362C21.7616 3.52192 21.9999 2.9462 21.9999 2.3339C21.9999 1.72159 21.7616 1.14588 21.3289 0.713337Z" fill="white"/>
</svg>
