<svg fill="none" height="26" viewBox="0 0 26 26" width="26" xmlns="http://www.w3.org/2000/svg"><path d="m13 26c7.1797 0 13-5.8203 13-13s-5.8203-13-13-13-13 5.8203-13 13 5.8203 13 13 13z" fill="#334c8c"/><path d="m16.2945 11.7701-.2155 1.8098c-.0093.084-.0494.1617-.1126.2179s-.145.0871-.2295.0865h-1.8816v5.3711c.0005.0641-.0245.1258-.0693.1717-.0449.0458-.1061.072-.1702.0729h-1.9175c-.0319-.0004-.0634-.0072-.0927-.0198s-.0558-.0309-.078-.0538c-.0223-.0228-.0398-.0499-.0516-.0795s-.0176-.0613-.0171-.0932l.0102-5.3694h-1.4248c-.09078 0-.17779-.036-.24195-.1002-.06416-.0641-.1002-.1511-.1002-.2419v-1.8097c0-.0907.03604-.1777.1002-.2419s.15117-.1002.24195-.1002h1.4163v-1.755c0-2.0304 1.2076-3.1354 2.9763-3.1354h1.4488c.0907 0 .1777.03604.2419.1002.0641.06416.1002.15117.1002.24191v1.52407c0 .09074-.0361.17775-.1002.24191-.0642.06416-.1512.1002-.2419.1002h-.8878c-.9613.01539-1.1426.47553-1.1426 1.16316v1.51385h2.1056c.0481.0008.0954.0117.139.0321.0435.0203.0822.0496.1137.0859s.0549.0788.0689.1248c.0139.046.018.0944.012.142z" fill="#fff"/></svg>