<svg width="20" height="20" viewBox="0 0 20 20" fill="none" xmlns="http://www.w3.org/2000/svg">
<path d="M10 0.625C4.83032 0.625 0.625 4.83063 0.625 10C0.625 15.1694 4.83032 19.375 10 19.375C15.1697 19.375 19.375 15.1694 19.375 10C19.375 4.83063 15.1697 0.625 10 0.625ZM8.125 2.5C9.84802 2.5 11.25 3.90198 11.25 5.625C11.25 7.34802 9.84802 8.75 8.125 8.75C6.40198 8.75 5 7.34802 5 5.625C5 3.90198 6.40198 2.5 8.125 2.5ZM13.125 16.4062C13.125 16.6644 12.9663 16.8961 12.7258 16.9891C11.8494 17.3282 10.9326 17.5 10 17.5C7.33032 17.5 4.8407 16.0608 3.5022 13.7439C3.4082 13.5812 3.39233 13.385 3.45947 13.2092C4.18884 11.2897 6.06384 10 8.125 10C10.882 10 13.125 12.243 13.125 15V16.4062ZM16.875 10.625H15.625V11.875C15.625 12.2202 15.3455 12.5 15 12.5C14.6545 12.5 14.375 12.2202 14.375 11.875V10.625H13.125C12.7795 10.625 12.5 10.3452 12.5 10C12.5 9.65485 12.7795 9.375 13.125 9.375H14.375V8.125C14.375 7.77985 14.6545 7.5 15 7.5C15.3455 7.5 15.625 7.77985 15.625 8.125V9.375H16.875C17.2205 9.375 17.5 9.65485 17.5 10C17.5 10.3452 17.2205 10.625 16.875 10.625Z" fill="#7B217E"/>
</svg>
