<svg fill="none" height="12" viewBox="0 0 16 12" width="16" xmlns="http://www.w3.org/2000/svg"><g fill="#18499a"><path d="m15.8593 1.17878-4.8525 4.82122 4.8525 4.8212c.0877-.1833.1409-.386.1409-.6025v-8.43745c0-.21647-.0532-.41913-.1409-.60247z"/><path d="m14.5937.375h-13.18752c-.21647 0-.419125.053219-.602469.140938l6.201969 6.170722c.54837.54838 1.44012.54838 1.9885 0l6.20192-6.170722c-.1833-.087719-.386-.140938-.6024-.140938z"/><path d="m.140938 1.17878c-.0877192.18334-.140938.386-.140938.60247v8.43745c0 .2165.0532188.4192.140938.6025l4.852472-4.8212z"/><path d="m10.3437 6.66284-.68668.68666c-.91372.91372-2.4005.91372-3.31422 0l-.68662-.68666-4.852469 4.82126c.183344.0877.385999.1409.602469.1409h13.18752c.2164 0 .4191-.0532.6024-.1409z"/></g></svg>