<svg fill="none" height="14" viewBox="0 0 14 14" width="14" xmlns="http://www.w3.org/2000/svg"><g fill="#7b217e"><path d="m12.3929 9.82391c.3222 0 .5833-.26116.5833-.58332 0-.32217-.2611-.58333-.5833-.58333s-.5833.26116-.5833.58333c0 .32216.2611.58332.5833.58332z"/><path d="m11.1209 11.7028c.3222 0 .5834-.2611.5834-.5833s-.2612-.5833-.5834-.5833c-.3221 0-.5833.2611-.5833.5833s.2612.5833.5833.5833z"/><path d="m12.8319 7.58566c.3221 0 .5833-.26116.5833-.58333 0-.32216-.2612-.58333-.5833-.58333-.3222 0-.5834.26117-.5834.58333 0 .32217.2612.58333.5834.58333z"/><path d="m9.23128 12.9774c.32217 0 .58334-.2611.58334-.5833s-.26117-.5833-.58334-.5833c-.32216 0-.58333.2611-.58333.5833s.26117.5833.58333.5833z"/><path d="m7.00015 12.25c-.84017.001-1.66831-.1996-2.41484-.5851-.74654-.3854-1.38967-.9444-1.87536-1.6299-.48568-.68558-.79975-1.47768-.9158-2.3098-.11606-.83211-.03071-1.67992.24887-2.4722.27957-.79229.74522-1.50591 1.3578-2.0809.61259-.57499 1.35422-.99457 2.16261-1.22348.80838-.2289 1.65989-.26046 2.48299-.09201.82311.16845 1.59377.53198 2.24718 1.06006h-.96012c-.15471 0-.30308.06146-.41248.17086-.10939.10939-.17085.25776-.17085.41247s.06146.30309.17085.41248c.1094.1094.25777.17086.41248.17086h2.33332c.1547 0 .3031-.06146.4125-.17086.1094-.10939.1708-.25777.1708-.41248v-2.33333c0-.15471-.0614-.303083-.1708-.41248-.1094-.109396-.2578-.170854-.4125-.170854s-.3031.061458-.4125.170854c-.1094.109397-.1708.25777-.1708.41248v.89308c-.7933-.65581-1.73271-1.111089-2.73897-1.327372-1.00626-.216284-2.0498-.18722-3.04246.084736-.99267.271956-1.90531.778816-2.66083 1.477766s-1.33173 1.56946-1.67997 2.53801c-.348236.96854-.458265 2.00667-.320794 3.02669.137472 1.02002.518404 1.99198 1.110624 2.83382.59222.8418 1.37834 1.5287 2.29194 2.0027s1.92786.7211 2.95711.7206c.15471 0 .30308-.0615.41248-.1709.10939-.1094.17085-.2577.17085-.4125 0-.1547-.06146-.303-.17085-.4124-.1094-.1094-.25777-.1709-.41248-.1709z"/><path d="m9.16274 9.16243c.10936-.1094.17079-.25774.17079-.41242s-.06143-.30303-.17079-.41242l-1.57908-1.57908v-3.2585c0-.15471-.06146-.30309-.17086-.41248-.10939-.1094-.25776-.17086-.41247-.17086s-.30309.06146-.41248.17086c-.1094.10939-.17086.25777-.17086.41248v3.5c.00004.1547.06152.30304.17092.41241l1.75 1.75001c.10939.10935.25774.17079.41242.17079.15467 0 .30302-.06144.41241-.17079z"/></g></svg>