<svg fill="none" height="26" viewBox="0 0 26 26" width="26" xmlns="http://www.w3.org/2000/svg" xmlns:xlink="http://www.w3.org/1999/xlink"><linearGradient id="a" gradientUnits="userSpaceOnUse" x1="13" x2="13" y1="25.8803" y2="1.76184"><stop offset="0" stop-color="#e09b3d"/><stop offset=".24" stop-color="#c74c4d"/><stop offset=".65" stop-color="#c21975"/><stop offset="1" stop-color="#7024c4"/></linearGradient><path d="m13 26c7.1797 0 13-5.8203 13-13s-5.8203-13-13-13-13 5.8203-13 13 5.8203 13 13 13z" fill="url(#a)"/><g fill="#fff"><path d="m15.6274 6.5h-5.2548c-1.02664.00136-2.01087.4098-2.73683 1.13577-.72597.72596-1.13441 1.71019-1.13577 2.73683v5.2548c.00136 1.0266.4098 2.0109 1.13577 2.7368.72596.726 1.71019 1.1344 2.73683 1.1358h5.2548c1.0268-.0009 2.0113-.4092 2.7373-1.1353.7261-.726 1.1344-1.7105 1.1353-2.7373v-5.2548c-.0014-1.02664-.4098-2.01087-1.1358-2.73683-.7259-.72597-1.7102-1.13441-2.7368-1.13577zm2.5658 9.1274c0 .6805-.2704 1.3331-.7515 1.8143-.4812.4811-1.1338.7515-1.8143.7515h-5.2548c-.68046 0-1.33308-.2704-1.81426-.7515-.48117-.4812-.7515-1.1338-.7515-1.8143v-5.2548c0-.68046.27033-1.33308.7515-1.81426.48118-.48117 1.1338-.7515 1.81426-.7515h5.2548c.6805 0 1.3331.27033 1.8143.7515.4811.48118.7515 1.1338.7515 1.81426z"/><path d="m13.0003 9.63881c-.6652-.00034-1.3156.19665-1.8689.56599-.5533.3694-.9846.8946-1.23934 1.5092-.25475.6146-.32149 1.2909-.19178 1.9434.1297.6525.45002 1.2518.92042 1.7222.4704.4705 1.0698.7908 1.7223.9205s1.3288.0629 1.9434-.1918c.6145-.2547 1.1397-.686 1.5091-1.2393s.5664-1.2037.566-1.869c-.0009-.8912-.3553-1.7456-.9854-2.3757-.6302-.63017-1.4846-.98458-2.3758-.98549zm0 5.41379c-.4059 0-.8028-.1203-1.1403-.3459-.3376-.2255-.6007-.5461-.756-.9212-.1554-.3751-.196-.7878-.1168-1.1859.0792-.3982.2747-.764.5617-1.051.2871-.2871.6528-.4826 1.051-.5618s.8109-.0385 1.186.1168c.375.1554.6956.4185.9212.756.2255.3376.3459.7344.3459 1.1404 0 .5444-.2163 1.0665-.6012 1.4514-.385.385-.9071.6012-1.4515.6012z"/><path d="m16.3821 10.4701c.4591 0 .8313-.3722.8313-.83129 0-.45912-.3722-.83131-.8313-.83131s-.8313.37219-.8313.83131c0 .45909.3722.83129.8313.83129z"/></g></svg>