<svg fill="none" height="53" viewBox="0 0 68 53" width="68" xmlns="http://www.w3.org/2000/svg" xmlns:xlink="http://www.w3.org/1999/xlink"><filter id="a" color-interpolation-filters="sRGB" filterUnits="userSpaceOnUse" height="53" width="68" x="0" y="0"><feFlood flood-opacity="0" result="BackgroundImageFix"/><feColorMatrix in="SourceAlpha" result="hardAlpha" type="matrix" values="0 0 0 0 0 0 0 0 0 0 0 0 0 0 0 0 0 0 127 0"/><feOffset dy="3"/><feGaussianBlur stdDeviation="3"/><feComposite in2="hardAlpha" operator="out"/><feColorMatrix type="matrix" values="0 0 0 0 0.25098 0 0 0 0 0.482353 0 0 0 0 1 0 0 0 0.45 0"/><feBlend in2="BackgroundImageFix" mode="normal" result="effect1_dropShadow_143_4170"/><feBlend in="SourceGraphic" in2="effect1_dropShadow_143_4170" mode="normal" result="shape"/></filter><linearGradient id="b" gradientUnits="userSpaceOnUse" x1="6" x2="66.9802" y1="3" y2="12.704"><stop offset="0" stop-color="#7b217e"/><stop offset=".432292" stop-color="#7b217e"/><stop offset="1" stop-color="#18499a"/></linearGradient><g filter="url(#a)"><ellipse cx="34" cy="23.5" fill="url(#b)" rx="28" ry="20.5"/></g><path d="m23.3968 14.408c.208-.048.496-.072.864-.072.984 0 1.776.308 2.376.924.536.552.804 1.252.804 2.1v1.152c0 .44-.16.804-.48 1.092-.288.264-.624.396-1.008.396h-3.768v-1.548h3.24c.112 0 .168-.056.168-.168v-.78c0-.488-.152-.888-.456-1.2-.296-.312-.684-.468-1.164-.468-.248 0-.44.016-.576.048zm6.4453 0c.208-.048.496-.072.864-.072.984 0 1.776.308 2.376.924.536.552.804 1.252.804 2.1v.588c0 .224.004.392.012.504h.3v1.548h-.156l-.444-.552h-.036c-.072.08-.136.148-.192.204-.28.224-.596.34-.948.348h-3.792v-1.548h3.24c.112 0 .168-.056.168-.168v-.78c0-.488-.152-.888-.456-1.2-.296-.312-.684-.468-1.164-.468-.248 0-.44.016-.576.048zm5.8563.276c.8-.232 1.492-.348 2.076-.348.96 0 1.772.3 2.436.9.608.56.912 1.244.912 2.052v1.224c0 .408-.144.756-.432 1.044-.296.296-.652.444-1.068.444h-5.52v-1.548h4.992c.112 0 .168-.056.168-.168v-.792c0-.528-.228-.94-.684-1.236-.36-.232-.776-.348-1.248-.348-.44 0-.984.084-1.632.252zm1.92 5.868c.256 0 .476.092.66.276s.276.408.276.672c0 .256-.092.476-.276.66s-.404.276-.66.276c-.264 0-.488-.092-.672-.276-.176-.184-.264-.404-.264-.66 0-.264.088-.488.264-.672.184-.184.408-.276.672-.276zm6.8369-9.144v8.136l-.936.756h-.912v-8.892zm-29.4312 15.748c.264 0 .484.092.66.276.184.184.276.404.276.66 0 .264-.092.488-.276.672-.176.176-.396.264-.66.264-.256 0-.476-.088-.66-.264-.184-.184-.276-.408-.276-.672 0-.256.092-.476.276-.66s.404-.276.66-.276zm2.148 0c.264 0 .484.092.66.276.184.184.276.404.276.66 0 .264-.092.488-.276.672-.176.176-.396.264-.66.264-.256 0-.476-.088-.66-.264-.184-.184-.276-.408-.276-.672 0-.256.092-.476.276-.66s.404-.276.66-.276zm4.116.324v4.032c0 .368-.12.688-.36.96-.296.352-.672.528-1.128.528h-6.6c-.56 0-1.052-.18-1.476-.54-.544-.464-.816-1.06-.816-1.788v-1.572l.936-.756h.912v2.328c0 .24.084.436.252.588.152.128.312.192.48.192h5.772c.12 0 .18-.056.18-.168v-3.804zm3.5031-3.072v6.876c0 .016.004.04.012.072l.012.012c.024.056.072.084.144.084h.444v1.548h-.972c-.392 0-.736-.14-1.032-.42-.304-.296-.456-.652-.456-1.068v-7.104zm3.5824.432c.264 0 .484.092.66.276.184.176.276.396.276.66 0 .256-.092.476-.276.66-.176.184-.396.276-.66.276-.256 0-.476-.092-.66-.276s-.276-.404-.276-.66.092-.476.276-.66.404-.276.66-.276zm.936 2.64v4.032c0 .352-.116.668-.348.948-.304.36-.688.54-1.152.54h-2.508v-1.548h1.98c.048 0 .088-.012.12-.036.04-.032.06-.076.06-.132v-3.804zm7.913-3.072v6.708c0 .072.004.184.012.336h.6v1.548h-.456l-.444-.552h-.036c-.144.184-.332.324-.564.42-.192.088-.384.132-.576.132h-4.452l-.756-.936v-.612h2.64l-1.896-5.568h1.692l1.896 5.568h.324c.056 0 .1-.016.132-.048.024-.048.036-.088.036-.12v-6.876zm2.7443 7.044c-.072-.136-.144-.304-.216-.504-.104-.344-.156-.668-.156-.972 0-.864.332-1.544.996-2.04.536-.4 1.18-.6 1.932-.6h.036.06c.472 0 .936.068 1.392.204v1.464c-.432-.088-.82-.132-1.164-.132-.936 0-1.404.42-1.404 1.26 0 .368.084.672.252.912.208.272.56.408 1.056.408h2.244v.612l-.744.936h-6.504v-1.548zm12.6192-7.044v7.104c0 .392-.136.732-.408 1.02-.288.312-.648.468-1.08.468h-4.428l-.756-.936v-.612h2.64l-1.896-5.568h1.692l1.896 5.568h.324c.048 0 .092-.02.132-.06.024-.024.036-.06.036-.108v-6.876zm3.5059 0v8.136l-.936.756h-.912v-8.892z" fill="#fff"/></svg>