<svg fill="none" height="16" viewBox="0 0 16 16" width="16" xmlns="http://www.w3.org/2000/svg"><g fill="#18499a"><path d="m15.6889 12.7226-1.7738-1.1827-1.5768-1.051c-.3043-.2024-.7133-.1361-.9379.1523l-.9758 1.2543c-.2095.2722-.58657.3504-.88713.184-.66206-.3682-1.44496-.715-3.17237-2.44462-1.72742-1.72963-2.07638-2.51031-2.44466-3.17237-.16641-.30056-.08819-.67758.184-.88714l1.25433-.97571c.28834-.22462.35474-.63358.15227-.93792l-1.01873-1.52827-1.21489-1.822349c-.20678-.31018382-.62072-.4033077-.9404-.2115913l-1.401109.8405523c-.378651.223088-.656992.583338-.777366 1.006048-.383151 1.39695-.4604 4.47857 4.478295 9.41727 4.93869 4.9387 8.02006 4.8612 9.41696 4.478.4227-.1203.783-.3987 1.0061-.7774l.8405-1.401c.1918-.3198.0986-.7337-.2115-.9404z"/><path d="m9.10299 2.48269c2.58881.00287 4.68671 2.10079 4.68961 4.6896 0 .15234.1235.27587.2759.27587.1523 0 .2758-.12349.2758-.27587-.0032-2.89337-2.3479-5.23813-5.24128-5.24131-.15234 0-.27587.1235-.27587.27587-.00003.15231.12347.27584.27584.27584z"/><path d="m9.10302 4.13783c1.67508.00197 3.03248 1.35939 3.03448 3.03443 0 .15234.1235.27587.2758.27587.1524 0 .2759-.1235.2759-.27587-.0023-1.97963-1.6065-3.58389-3.58618-3.58618-.15234 0-.27587.1235-.27587.27588 0 .15237.1235.27587.27587.27587z"/><path d="m9.10299 5.793c.76141.0009 1.37841.6179 1.37931 1.37931 0 .15234.1235.27588.2759.27588.1523 0 .2759-.1235.2759-.27588-.0013-1.06597-.8651-1.92981-1.93108-1.93103-.15234 0-.27587.1235-.27587.27587-.00003.15235.12347.27585.27584.27585z"/></g></svg>