<svg fill="none" height="40" viewBox="0 0 40 40" width="40" xmlns="http://www.w3.org/2000/svg" xmlns:xlink="http://www.w3.org/1999/xlink"><clipPath id="a"><path d="m0 0h40v40h-40z" transform="matrix(-1 0 0 1 40 0)"/></clipPath><g clip-path="url(#a)"><path d="m5.82509 34.14c-7.80931-7.8093-7.80931-20.4707 0-28.28003 7.80931-7.80931 20.47071-7.80931 28.28001 0 7.8093 7.80933 7.8093 20.47073 0 28.28003s-20.4707 7.8093-28.28001 0z" fill="#7b217e"/><path clip-rule="evenodd" d="m10.0349 18.2209 13.5039-7.7961c.3123-.1801.6664-.2748 1.0269-.2748.3604.0001.7145.0949 1.0267.2751s.5716.4393.7519.7514c.1804.3121.2755.6662.2758 1.0266v15.5938c.0021.3609-.0919.7159-.2723 1.0285s-.4407.5716-.7543.7504c-.3117.1821-.6663.2781-1.0273.2781-.3611 0-.7156-.096-1.0274-.2781l-13.5039-7.7969c-.31209-.1804-.57125-.4398-.75142-.752-.18018-.3122-.27502-.6664-.27502-1.0269s.09484-.7147.27502-1.0269c.18017-.3123.43933-.5716.75142-.752z" fill="#fff" fill-rule="evenodd"/></g></svg>