<svg fill="none" height="127" viewBox="0 0 127 127" width="127" xmlns="http://www.w3.org/2000/svg" xmlns:xlink="http://www.w3.org/1999/xlink"><linearGradient id="a"><stop offset="0" stop-color="#7b217e"/><stop offset=".432292" stop-color="#7b217e"/><stop offset="1" stop-color="#18499a"/></linearGradient><linearGradient id="b" gradientUnits="userSpaceOnUse" x1="62.4717" x2="133.553" xlink:href="#a" y1="0" y2="8.28158"/><linearGradient id="c" gradientUnits="userSpaceOnUse" x1="67.8711" x2="127.056" xlink:href="#a" y1="5.40048" y2="12.296"/><linearGradient id="d" gradientUnits="userSpaceOnUse" x1="83.2256" x2="108.58" xlink:href="#a" y1="20.7573" y2="23.7113"/><linearGradient id="e" gradientUnits="userSpaceOnUse" x1="0" x2="92.6819" xlink:href="#a" y1="42.8622" y2="53.6603"/><linearGradient id="f" gradientUnits="userSpaceOnUse" x1="5.77246" x2="85.737" xlink:href="#a" y1="48.6348" y2="57.9513"/><linearGradient id="g" gradientUnits="userSpaceOnUse" x1="22.6953" x2="65.3773" xlink:href="#a" y1="65.5571" y2="70.5284"/><clipPath id="h"><path d="m0 15c0-8.28427 6.71573-15 15-15h97c8.284 0 15 6.71573 15 15v112h-127z"/></clipPath><g clip-path="url(#h)"><path d="m127 29.4918v5.5453c0 2.2141-1.648 4.13-3.831 4.4567-.984.1448-1.99.2899-3.005.4234-.511 1.7026-1.196 3.3511-2.038 4.9173.62.8101 1.234 1.6257 1.825 2.4244 1.313 1.7765 1.123 4.2947-.44 5.8608l-3.923 3.9197c-1.563 1.5661-4.084 1.7564-5.86.4405-.802-.5911-1.615-1.2053-2.425-1.8219-1.566.8414-3.215 1.5262-4.914 2.035-.137 1.0175-.279 2.0238-.427 3.0043-.326 2.1858-2.2421 3.8313-4.4535 3.8313h-5.5453c-2.2141 0-4.13-1.6457-4.4566-3.8313-.1449-.9805-.29-1.9896-.4235-3.0043-1.7026-.5088-3.3511-1.1939-4.9172-2.035-.8102.6169-1.623 1.2308-2.4245 1.8219-1.7765 1.3159-4.2946 1.1256-5.8608-.4405l-3.9196-3.9197c-1.5662-1.5661-1.7567-4.0843-.4435-5.8608.594-.7987 1.2052-1.6146 1.8248-2.4244-.8413-1.5662-1.5235-3.2147-2.0349-4.9173-1.0175-.1337-2.0239-.2786-3.0044-.4234-2.1858-.327-3.8313-2.2426-3.8313-4.4567v-5.5453c0-2.2114 1.6458-4.127 3.8313-4.4539.9805-.1479 1.9896-.29 3.0044-.4264.5117-1.6997 1.1938-3.3482 2.0349-4.9143-.6196-.8129-1.2308-1.6257-1.8219-2.4245-1.3159-1.7765-1.1256-4.2976.4406-5.8608l3.9196-3.92237c1.5662-1.56319 4.0843-1.75369 5.8608-.44053.8015.59407 1.6146 1.20526 2.4245 1.82488 1.5661-.84138 3.2146-1.52624 4.9172-2.03796.1337-1.01476.2786-2.02083.4235-3.00434.3264-2.18306 2.2421-3.83158 4.4564-3.83158h5.5453c2.2113 0 4.1267 1.64852 4.4537 3.83133.148.98351.29 1.98959.427 3.00435 1.699.51172 3.348 1.19657 4.914 2.03795.81-.61962 1.623-1.23081 2.427-1.82488 1.774-1.31316 4.295-1.12266 5.858.44053l3.923 3.92232c1.563 1.5632 1.753 4.0844.44 5.8579-.591.8015-1.205 1.6146-1.825 2.4274.842 1.5662 1.527 3.2147 2.038 4.9143 1.015.1364 2.021.2786 3.005.4264 2.183.3272 3.831 2.2428 3.831 4.4542zm-5.4 4.7751v-4.002c-.893-.128-1.802-.253-2.715-.3723-1.802-.2359-3.28-1.5178-3.76-3.263-.461-1.6714-1.129-3.2829-1.987-4.795-.895-1.5746-.756-3.5245.352-4.9684.56-.7275 1.115-1.458 1.655-2.1828l-2.828-2.828c-.728.543-1.458 1.0971-2.183 1.6542-1.444 1.1085-3.394 1.2477-4.968.3525-1.513-.8585-3.124-1.5262-4.795-1.9869-1.7485-.4804-3.0277-1.95829-3.2635-3.76308-.1194-.90958-.2444-1.81917-.3724-2.71164h-4.002c-.1279.89247-.253 1.80206-.3723 2.71437-.2359 1.80206-1.515 3.27995-3.263 3.76035-1.6714.4604-3.2829 1.1284-4.792 1.9869-1.5776.8954-3.5273.756-4.9711-.3525-.7248-.5571-1.4553-1.1112-2.1829-1.6542l-2.8279 2.828c.54.7248 1.0943 1.4553 1.6542 2.1828 1.1112 1.4439 1.2477 3.3938.3525 4.9684-.8585 1.5121-1.5263 3.1236-1.9869 4.795-.4805 1.7452-1.9556 3.0271-3.7604 3.263-.9123.1193-1.8219.2443-2.7116.3723v4.002c.8897.128 1.799.253 2.7116.3723 1.8048.2359 3.2799 1.5151 3.7604 3.2631.4604 1.6713 1.1284 3.2829 1.9869 4.792.8952 1.5776.759 3.5272-.3495 4.9684-.5629.7275-1.117 1.461-1.657 2.1828l2.828 2.831c.7275-.543 1.458-1.0971 2.1858-1.6543 1.4411-1.1112 3.3908-1.2476 4.9684-.3524 1.5093.8585 3.1236 1.5262 4.792 1.9868 1.748.4805 3.0271 1.9584 3.263 3.7604.1193.9123.2444 1.8219.3723 2.7117h4.002c.128-.8898.253-1.7991.3724-2.7117.2358-1.802 1.5148-3.2799 3.263-3.7604 1.671-.4603 3.283-1.1283 4.792-1.9868 1.578-.8952 3.527-.7588 4.971.3524.725.5572 1.458 1.1113 2.183 1.6543l2.828-2.831c-.54-.7221-1.094-1.4553-1.654-2.1828-1.109-1.4412-1.248-3.3908-.353-4.9684.859-1.5093 1.526-3.1209 1.987-4.792.481-1.748 1.958-3.0272 3.76-3.2631.913-.1193 1.822-.2445 2.715-.3723z" fill="url(#b)"/><path d="m121.599 30.2649v4.002c-.892.128-1.802.253-2.714.3724-1.802.2358-3.28 1.515-3.76 3.263-.461 1.6714-1.129 3.2829-1.987 4.792-.896 1.5776-.756 3.5273.352 4.9684.56.7275 1.114 1.461 1.654 2.1828l-2.828 2.831c-.724-.543-1.458-1.0971-2.182-1.6542-1.444-1.1113-3.394-1.2477-4.972-.3525-1.509.8585-3.12 1.5262-4.792 1.9868-1.7475.4805-3.0267 1.9584-3.2626 3.7604-.1193.9123-.2443 1.8219-.3723 2.7117h-4.002c-.128-.8898-.253-1.7991-.3723-2.7117-.2359-1.802-1.5151-3.2799-3.2631-3.7604-1.6684-.4603-3.2829-1.1283-4.792-1.9868-1.5776-.8952-3.5272-.7588-4.9684.3525-.7275.5571-1.458 1.1112-2.1858 1.6542l-2.828-2.831c.54-.722 1.0944-1.4553 1.657-2.1828 1.1085-1.4411 1.2449-3.3908.3495-4.9684-.8585-1.5093-1.5262-3.1209-1.9869-4.792-.4804-1.748-1.9556-3.0272-3.7604-3.263-.9123-.1194-1.8219-.2444-2.7116-.3724v-4.002c.8897-.1279 1.7991-.253 2.7116-.3723 1.8048-.2359 3.28-1.5178 3.7604-3.263.4604-1.6714 1.1284-3.2829 1.9869-4.795.8952-1.5746.759-3.5245-.3525-4.9684-.5598-.7275-1.1142-1.458-1.6542-2.1828l2.828-2.828c.7275.543 1.458 1.0971 2.1828 1.6542 1.4439 1.1086 3.3938 1.2477 4.9711.3525 1.5094-.8585 3.1209-1.5262 4.792-1.9868 1.748-.4805 3.0272-1.95838 3.2631-3.76044.1193-.91232.2443-1.82191.3723-2.71438h4.002c.128.89247.253 1.80206.3723 2.71165.2359 1.80479 1.5151 3.28287 3.2631 3.76317 1.671.4603 3.283 1.1283 4.795 1.9868 1.575.8955 3.524.7561 4.968-.3525.725-.5571 1.456-1.1112 2.183-1.6542l2.828 2.828c-.54.7248-1.094 1.4553-1.654 2.1828-1.109 1.4439-1.248 3.3938-.353 4.9684.859 1.5121 1.527 3.1236 1.987 4.795.481 1.7452 1.959 3.0271 3.761 3.263.912.1193 1.822.2444 2.714.3723zm-15.357 2.001c0-6.3467-5.161-11.5083-11.5082-11.5083-6.3467 0-11.5084 5.1616-11.5084 11.5083 0 6.3468 5.1617 11.5084 11.5084 11.5084 6.3472 0 11.5082-5.1616 11.5082-11.5084z" fill="url(#c)"/><path d="m94.734 20.7573c6.347 0 11.508 5.1616 11.508 11.5084s-5.161 11.5084-11.508 11.5084c-6.3468 0-11.5084-5.1616-11.5084-11.5084s5.1613-11.5084 11.5084-11.5084zm6.392 11.5086c0-3.5245-2.8675-6.3924-6.392-6.3924s-6.3924 2.8679-6.3924 6.3924 2.8679 6.3925 6.3924 6.3925c3.5245-.0003 6.392-2.868 6.392-6.3925z" fill="url(#d)"/><path d="m83.7372 71.8024c1.0003 2.416.0682 5.2526-2.1687 6.597-1.3303.7987-2.7002 1.6059-4.0759 2.3989.3212 2.7399.3212 5.5198 0 8.2654 1.37.7903 2.7399 1.5974 4.0759 2.3989 2.2369 1.3444 3.1693 4.1811 2.1687 6.597l-2.919 7.0494c-1.0034 2.418-3.6667 3.766-6.202 3.135-1.5063-.376-3.044-.776-4.5789-1.185-1.711 2.168-3.6751 4.132-5.841 5.843.4122 1.544.8128 3.081 1.1852 4.576.631 2.536-.7164 5.199-3.1324 6.2l-7.049 2.922c-2.4187 1-5.2553.068-6.5998-2.169-.8044-1.339-1.6115-2.709-2.3988-4.076-2.7429.321-5.5198.321-8.2654 0-.7958 1.381-1.6032 2.754-2.3989 4.076-.9805 1.631-2.7543 2.57-4.5789 2.57-.6794 0-1.3643-.131-2.0182-.401l-7.0517-2.922c-2.416-1.001-3.7631-3.664-3.1323-6.2.3753-1.503.7732-3.044 1.1852-4.578-2.1687-1.712-4.1328-3.676-5.8438-5.841-1.5349.412-3.0725.81-4.5762 1.185-2.53528.631-5.19856-.717-6.19918-3.133l-2.921996-7.0486c-1.000373-2.4187-.068213-5.2554 2.168676-6.5998 1.33027-.8015 2.70024-1.6059 4.0759-2.3989-.32122-2.7429-.32122-5.5198 0-8.2654-1.37294-.7903-2.7429-1.5974-4.0759-2.3989-2.236889-1.3444-3.169297-4.181-2.168676-6.597l2.919016-7.049c1.00335-2.4187 3.66663-3.7661 6.19919-3.1351 1.50367.3753 3.04407.7732 4.58187 1.1852 1.7111-2.1687 3.6751-4.1327 5.8411-5.8438-.4093-1.5292-.8072-3.0668-1.1852-4.5762-.631-2.5353.7163-5.1985 3.1323-6.1992l7.049-2.9219c2.4187-1.0004 5.2554-.0683 6.5998 2.1686.7987 1.3273 1.6059 2.6973 2.3989 4.0759 2.7429-.3212 5.5198-.3212 8.2654 0 .7903-1.3729 1.5974-2.7429 2.3988-4.0759 1.3445-2.2369 4.1811-3.1693 6.5998-2.1686l7.049 2.9219c2.416 1.0004 3.7631 3.6637 3.1324 6.1992-.3753 1.5064-.7759 3.0441-1.1852 4.579 2.1687 1.711 4.1327 3.675 5.8437 5.841 1.532-.4123 3.0726-.8101 4.5762-1.1852 2.5353-.631 5.1986.7164 6.1992 3.1324l2.922 7.0489c-.0002.0028-.0002.0028-.0002.0028zm-5.372 1.8901-2.6831-6.4805c-1.4439.3639-2.919.7447-4.3884 1.1425-2.0777.5571-4.2692-.1706-5.5823-1.8616-1.5121-1.9385-3.2601-3.6864-5.2043-5.1985-1.6885-1.3159-2.4217-3.5104-1.8616-5.5851.3951-1.4694.7789-2.9445 1.1425-4.3914l-6.4805-2.6831c-.7674 1.2789-1.5406 2.5951-2.2966 3.911-1.0743 1.8645-3.1378 2.8991-5.2668 2.632-2.4445-.3041-4.9173-.3041-7.3558 0-2.1203.2644-4.1896-.7702-5.2611-2.6348-.7618-1.3188-1.532-2.632-2.2967-3.9082l-6.4805 2.6831c.3639 1.4496.7477 2.9247 1.1425 4.3885.5572 2.0776-.1706 4.2691-1.8588 5.5823-1.9412 1.5121-3.6892 3.26-5.2016 5.2042-1.3158 1.6882-3.5103 2.4217-5.585 1.8616-1.4724-.3978-2.94752-.7816-4.3914-1.1425l-2.68313 6.4805c1.28191.7675 2.59507 1.5406 3.91096 2.2967 1.86457 1.0743 2.89917 3.1407 2.63207 5.2667-.3042 2.4416-.3042 4.9173 0 7.3559.2644 2.1233-.7702 4.1895-2.6348 5.261-1.31589.7591-2.62905 1.5293-3.90823 2.2967l2.68313 6.4805c1.44388-.361 2.919-.745 4.3884-1.143 2.0777-.557 4.2692.171 5.5823 1.862 1.5121 1.939 3.2601 3.687 5.2043 5.199 1.6885 1.316 2.4187 3.51 1.8616 5.585-.3979 1.472-.7816 2.947-1.1425 4.391l6.4805 2.683c.7617-1.27 1.5319-2.586 2.2966-3.911 1.0743-1.864 3.1378-2.896 5.2668-2.632 2.4415.304 4.9173.304 7.3558 0 2.1233-.261 4.1896.77 5.2611 2.635.7561 1.31 1.5262 2.623 2.2967 3.908l6.4805-2.683c-.361-1.438-.7447-2.911-1.1425-4.388-.5572-2.078.1706-4.269 1.8588-5.583 1.9385-1.512 3.6892-3.26 5.2016-5.204 1.3158-1.688 3.5073-2.419 5.585-1.862 1.4694.396 2.9445.779 4.3914 1.143l2.6831-6.4805c-1.2819-.7674-2.5978-1.5406-3.9109-2.2967-1.8646-1.0742-2.8962-3.1407-2.6321-5.2667.3042-2.4416.3042-4.9173 0-7.3559-.2644-2.1232.7702-4.1895 2.6348-5.261 1.3159-.7591 2.632-1.5322 3.9082-2.2967z" fill="url(#e)"/><path d="m75.6817 67.212 2.6832 6.4805c-1.2762.7645-2.5921 1.5376-3.9083 2.2967-1.8645 1.0715-2.8991 3.1377-2.6347 5.261.3041 2.4388.3041 4.9143 0 7.3559-.2644 2.126.7674 4.1924 2.632 5.2667 1.3132.7561 2.6291 1.5293 3.911 2.2967l-2.6832 6.4805c-1.4468-.364-2.9219-.748-4.3914-1.143-2.0776-.557-4.2691.174-5.585 1.862-1.5121 1.944-3.2631 3.692-5.2015 5.204-1.6885 1.314-2.416 3.505-1.8589 5.583.3979 1.478.7816 2.95 1.1425 4.388l-6.4805 2.683c-.7702-1.284-1.5406-2.598-2.2966-3.908-1.0716-1.865-3.1378-2.896-5.2611-2.635-2.4388.304-4.9143.304-7.3558 0-2.129-.264-4.1925.768-5.2668 2.632-.7645 1.325-1.5349 2.641-2.2967 3.911l-6.4802-2.683c.3609-1.444.7446-2.919 1.1425-4.391.5571-2.075-.1734-4.269-1.8616-5.585-1.9442-1.512-3.6922-3.26-5.2043-5.199-1.3131-1.691-3.5046-2.419-5.5823-1.862-1.4694.398-2.94453.782-4.38842 1.143l-2.68312-6.4805c1.27893-.7674 2.59209-1.5376 3.90823-2.2967 1.86461-1.0715 2.89921-3.1377 2.63471-5.261-.3041-2.4388-.3041-4.9143 0-7.3559.2672-2.126-.7674-4.1925-2.63198-5.2667-1.31589-.7561-2.62905-1.5293-3.91096-2.2967l2.68312-6.4805c1.44389.3609 2.91902.7447 4.39142 1.1425 2.0749.5599 4.2691-.1734 5.585-1.8616 1.5121-1.9442 3.2601-3.6921 5.2016-5.2042 1.6882-1.3132 2.416-3.5047 1.8588-5.5823-.3951-1.4638-.7788-2.9389-1.1425-4.3885l6.4805-2.6831c.7645 1.2762 1.5349 2.5894 2.2967 3.9082 1.0715 1.8646 3.1407 2.8992 5.261 2.6348 2.4388-.3041 4.9116-.3041 7.3559 0 2.129.2671 4.1925-.7675 5.2667-2.632.7561-1.3159 1.5293-2.6321 2.2967-3.911l6.4805 2.6831c-.3639 1.4466-.7476 2.922-1.1425 4.3914-.5599 2.075.1734 4.2692 1.8616 5.5851 1.9442 1.5121 3.6922 3.26 5.2043 5.1985 1.3131 1.6912 3.5046 2.4187 5.5822 1.8616 1.4692-.3978 2.9444-.7786 4.3882-1.1425zm-14.2401 17.6962c0-2.4671-.4747-4.9741-1.4751-7.3901-4.0873-9.8713-15.4422-14.5752-25.3107-10.4852-9.8713 4.0873-14.5753 15.4422-10.4852 25.3107 1.9782 4.7836 5.7046 8.5074 10.4852 10.4854 2.3904.992 4.9002 1.486 7.4126 1.486 2.5125 0 5.0225-.494 7.4126-1.486 7.4529-3.0866 11.9606-10.3174 11.9606-17.9208z" fill="url(#f)"/><path d="m59.9669 77.5184c1.0004 2.4159 1.4751 4.923 1.4751 7.39 0 7.6032-4.508 14.834-11.9603 17.9206-2.3904.992-4.9002 1.487-7.4126 1.487-2.5125 0-5.0225-.495-7.4127-1.487-4.7808-1.978-8.507-5.7015-10.4852-10.4851-4.09-9.8686.614-21.2237 10.4852-25.3107 9.8683-4.0903 21.2234.6136 25.3105 10.4852zm-12.6596 20.0608c6.9751-2.8908 10.2977-10.9146 7.4099-17.8867-2.1828-5.2668-7.2906-8.4502-12.6652-8.4502-1.7423 0-3.5131.3353-5.2214 1.0403-6.9751 2.8907-10.2977 10.9145-7.4099 17.8867 1.4012 3.3793 4.0305 6.0086 7.4099 7.4099 3.3796 1.3984 7.1001 1.3984 10.4767 0z" fill="url(#g)"/></g></svg>