<svg fill="none" height="22" viewBox="0 0 22 22" width="22" xmlns="http://www.w3.org/2000/svg" xmlns:xlink="http://www.w3.org/1999/xlink"><linearGradient id="a" gradientUnits="userSpaceOnUse" x1="2.56463" x2="19.4354" y1="19.4354" y2="2.56463"><stop offset="0" stop-color="#5696ff"/><stop offset="1" stop-color="#18499a"/></linearGradient><path d="m11 0c3.6794.0666008 6.6391.712421 8.4348 2.56524 1.8528 1.79566 2.4986 4.75492 2.5652 8.43476-.0666 3.6794-.7129 6.6391-2.5652 8.4348-1.7957 1.8523-4.7554 2.4986-8.4348 2.5652-3.67941-.0662-6.6391-.7124-8.43477-2.5652-1.852378-1.7957-2.4986284-4.7554-2.56523-8.4348.0661719-3.67941.712852-6.6391 2.56523-8.43476 1.79567-1.852388 4.75536-2.4990684 8.43477-2.56524z" fill="url(#a)"/><path d="m16.5269 11.8723c-.1426.1426-.3738.1426-.5165 0l-4.9955-4.99558-5.02478 5.02518c-.14266.1427-.37383.1427-.51649 0-.14265-.1426-.14265-.3738 0-.5165l5.28347-5.2834c.0683-.06832.1615-.107.2582-.107s.1899.03868.2583.107l5.2533 5.2538c.0713.0713.107.1646.107.2582 0 .0937-.0352.1869-.107.2583zm0 3.9965c.0713-.0713.107-.1646.107-.2582 0-.0937-.0357-.187-.107-.2583l-5.2538-5.2538c-.0683-.0683-.1615-.10697-.2582-.10697s-.1899.03867-.2583.10697l-5.2834 5.283c-.14265.1427-.14265.3739 0 .5165.14266.1427.37383.1427.51649 0l5.02521-5.0252 4.9955 4.996c.1427.1426.3743.1426.5165 0z" fill="#fff"/></svg>