<svg fill="none" height="156" viewBox="0 0 162 156" width="162" xmlns="http://www.w3.org/2000/svg" xmlns:xlink="http://www.w3.org/1999/xlink"><linearGradient id="a" gradientUnits="userSpaceOnUse" x1="0" x2="178.221" y1=".656281" y2="22.4021"><stop offset="0" stop-color="#7b217e"/><stop offset=".432292" stop-color="#7b217e"/><stop offset="1" stop-color="#18499a"/></linearGradient><path d="m162 77.9979c0 8.0134-14.357 13.659-16.704 20.8899-2.435 7.4942 5.777 20.4852 1.236 26.7212-4.584 6.301-19.506 2.482-25.807 7.068-6.238 4.539-7.191 19.933-14.683 22.359-7.231 2.347-17.0195-9.471-25.0422-9.471s-17.8024 11.818-25.0422 9.471c-7.4946-2.435-8.4471-17.829-14.6853-22.359-6.2986-4.584-21.2209-.765-25.8069-7.066-4.5388-6.238 3.6713-19.229 1.2386-26.7208-2.3472-7.231-16.704-12.8766-16.704-20.8899 0-8.0134 14.3568-13.659 16.7045-20.89 2.4327-7.4927-5.7774-20.4832-1.2386-26.721 4.586-6.3009 19.5083-2.4818 25.8092-7.0655 6.2359-4.5388 7.1884-19.93553 14.683-22.358942 7.2309-2.347688 17.0194 9.471142 25.0422 9.471142 8.0222 0 17.8023-11.81883 25.0417-9.471142 7.493 2.432752 8.448 17.829042 14.683 22.358942 6.301 4.586 21.224.767 25.81 7.0655 4.538 6.2382-3.674 19.2288-1.239 26.721 2.347 7.2282 16.704 12.8738 16.704 20.8876z" fill="url(#a)"/><path d="m73.9256 105.537c-2.372.004-4.6477-.939-6.3233-2.618l-19.9397-19.9397c-3.4933-3.4923-3.4942-9.1552-.0024-12.6484 3.4924-3.4933 9.1553-3.4942 12.6485-.0024l13.6165 13.6146 27.7808-27.7788c3.493-3.4932 9.156-3.4937 12.65-.0009 3.493 3.4928 3.493 9.1561.001 12.6494l-34.1067 34.1062c-1.6756 1.68-3.9522 2.622-6.3247 2.618z" fill="#fff"/></svg>