<svg fill="none" height="137" viewBox="0 0 137 137" width="137" xmlns="http://www.w3.org/2000/svg"><g fill="#e04f5f"><path d="m96.9832 127.394h-56.5928c-2.9567 0-5.405-2.288-5.6057-5.245l-4.8566-72.1922c-.214-3.251 2.3547-5.9937 5.6058-5.9937h66.3061c3.251 0 5.82 2.756 5.606 5.9937l-4.857 72.1922c-.201 2.957-2.6491 5.245-5.6058 5.245zm16.0008-93.9601h-87.899c-.0803 0-.1338-.0535-.1338-.1338v-15.3724c0-.0802.0535-.1338.1338-.1338h87.899c.081 0 .134.0536.134.1338v15.359c0 .0803-.053.1472-.134.1472z"/><path d="m92.4343 25.353h-46.9734c-.0802 0-.1338-.0535-.1338-.1338v-17.47282c0-.08027.0536-.13379.1338-.13379h46.9734c.0803 0 .1338.05352.1338.13379v17.47282c0 .0669-.0535.1338-.1338.1338z"/></g></svg>