<svg fill="none" height="40" viewBox="0 0 40 40" width="40" xmlns="http://www.w3.org/2000/svg"><path d="m20 0c-11.02769 0-20 8.97154-20 20 0 11.0285 8.97231 20 20 20 11.0277 0 20-8.9715 20-20 0-11.02846-8.9723-20-20-20zm11.15 13.33-12.3077 13.8462c-.3031.3407-.7254.5161-1.1508.5161-.3377 0-.6769-.1108-.9607-.3369l-7.69234-6.1539c-.66308-.53-.77077-1.4984-.24-2.1623.53-.6638 1.49924-.7715 2.16234-.2407l6.5515 5.2407 11.3377-12.7546c.5631-.6354 1.5369-.6923 2.1715-.1277.6354.5654.6931 1.5377.1285 2.1731z" fill="#18499a"/></svg>