<svg fill="none" height="26" viewBox="0 0 26 26" width="26" xmlns="http://www.w3.org/2000/svg"><path d="m13 26c7.1797 0 13-5.8203 13-13s-5.8203-13-13-13-13 5.8203-13 13 5.8203 13 13 13z" fill="#00a6de"/><path d="m19.4739 9.06579c-.3073.46159-.6827.87394-1.1136 1.22301-.0543.0453-.0978.1021-.1274.1663s-.0445.1342-.0436.2049v.0428c-.005.927-.1753 1.8457-.5029 2.7129-.3375.9102-.839 1.7508-1.4796 2.4802-.8608.98-1.9682 1.7118-3.2072 2.1194-.8142.2642-1.6654.3965-2.5214.3917-1.35788-.0002-2.69159-.3596-3.86574-1.0417-.04207-.024-.07519-.0609-.09433-.1054s-.02326-.0939-.01172-.1409c.01184-.0463.03882-.0873.07664-.1164s.0843-.0448.13204-.0444h.325c1.03196.0025 2.04108-.3037 2.89763-.8792-.51046-.0827-.98819-.3047-1.38056-.6415-.39236-.3368-.68412-.7754-.84312-1.2675-.00814-.0246-.00962-.051-.00428-.0764.00533-.0254.0173-.0489.03467-.0682s.03953-.0336.06423-.0416c.02471-.0079.05108-.0092.07643-.0037.15567.0293.31371.0442.47211.0445h.05987c-.49336-.2266-.9105-.5914-1.201-1.05-.2905-.4587-.44193-.9917-.43598-1.5346.00018-.0254.00693-.0503.0196-.0723.01267-.0221.03083-.0404.0527-.0533.02188-.013.04672-.02.07212-.0205.0254-.0004.05049.0057.07282.0178.20067.1121.41599.1955.63974.248-.44226-.4375-.72672-1.0095-.80876-1.6262-.08204-.61669.04299-1.24317.35547-1.78113.01182-.02066.02848-.03814.04855-.05095.02006-.0128.04294-.02055.06666-.02257s.04757.00175.06951.01098.04132.02365.05646.04202c.61781.76495 1.38295 1.39803 2.25005 1.8617.86709.46365 1.81849.74845 2.79769.83755h.0137c.0144-.0005.0285-.0038.0416-.0099.0131-.006.0247-.0147.0343-.0254s.017-.0233.0215-.0369c.0046-.0137.0064-.0281.0052-.0424-.0382-.3433-.0162-.6906.065-1.02636.1104-.45635.3369-.87638.6577-1.21927.3207-.3429.7246-.59699 1.1726-.73758.2874-.08977.5867-.1359.8878-.13684.6827-.00078 1.3421.24803 1.8542.69961.0663.05934.1521.09222.2412.09237.0288-.00062.0575-.00464.0855-.01198.4811-.12157.942-.31228 1.3684-.56618.0255-.01574.0553-.02321.0852-.02138s.0585.01286.082.03159c.0234.01873.0404.04424.0488.07303.0083.02879.0076.05946-.0022.08781-.1423.44779-.396.85212-.7372 1.17513.3074-.07329.6074-.17464.8963-.30276.0285-.01101.0597-.01286.0893-.0053.0297.00755.0562.02415.0759.04747.0198.02333.0318.05222.0344.08267.0025.03046-.0044.06096-.02.08726z" fill="#fff"/></svg>