<svg width="24" height="24" viewBox="0 0 24 24" fill="none" xmlns="http://www.w3.org/2000/svg">
<path d="M22.8 1.2H19.2V0H4.8V1.2H1.2C0.48 1.2 0 1.68 0 2.4V5.28C0 8.04 2.04 10.32 4.8 10.68V10.8C4.8 14.28 7.2 17.16 10.44 17.88L9.6 20.4H6.84C6.36 20.4 5.88 20.76 5.76 21.24L4.8 24H19.2L18.24 21.24C18.12 20.76 17.64 20.4 17.16 20.4H14.4L13.56 17.88C16.8 17.16 19.2 14.28 19.2 10.8V10.68C21.96 10.32 24 8.04 24 5.28V2.4C24 1.68 23.52 1.2 22.8 1.2ZM4.8 8.28C3.48 7.92 2.4 6.72 2.4 5.28V3.6H4.8V8.28ZM14.4 12L12 10.68L9.6 12L10.2 9.6L8.4 7.2H10.92L12 4.8L13.08 7.2H15.6L13.8 9.6L14.4 12ZM21.6 5.28C21.6 6.72 20.52 8.04 19.2 8.28V3.6H21.6V5.28Z" fill="#C4C4C4"/>
</svg>
