<svg width="22" height="22" viewBox="0 0 22 22" fill="none" xmlns="http://www.w3.org/2000/svg">
<path d="M9.78125 2.46875V8.15625C9.78125 8.58723 9.61004 9.00055 9.3053 9.3053C9.00055 9.61004 8.58723 9.78125 8.15625 9.78125H2.46875C2.03777 9.78125 1.62445 9.61004 1.3197 9.3053C1.01495 9.00055 0.84375 8.58723 0.84375 8.15625V2.46875C0.84375 2.03777 1.01495 1.62445 1.3197 1.3197C1.62445 1.01495 2.03777 0.84375 2.46875 0.84375H8.15625C8.58723 0.84375 9.00055 1.01495 9.3053 1.3197C9.61004 1.62445 9.78125 2.03777 9.78125 2.46875ZM19.5312 0.84375H13.8438C13.4128 0.84375 12.9994 1.01495 12.6947 1.3197C12.39 1.62445 12.2188 2.03777 12.2188 2.46875V8.15625C12.2188 8.58723 12.39 9.00055 12.6947 9.3053C12.9994 9.61004 13.4128 9.78125 13.8438 9.78125H19.5312C19.9622 9.78125 20.3756 9.61004 20.6803 9.3053C20.985 9.00055 21.1562 8.58723 21.1562 8.15625V2.46875C21.1562 2.03777 20.985 1.62445 20.6803 1.3197C20.3756 1.01495 19.9622 0.84375 19.5312 0.84375ZM8.15625 12.2188H2.46875C2.03777 12.2188 1.62445 12.39 1.3197 12.6947C1.01495 12.9994 0.84375 13.4128 0.84375 13.8438V19.5312C0.84375 19.9622 1.01495 20.3756 1.3197 20.6803C1.62445 20.985 2.03777 21.1562 2.46875 21.1562H8.15625C8.58723 21.1562 9.00055 20.985 9.3053 20.6803C9.61004 20.3756 9.78125 19.9622 9.78125 19.5312V13.8438C9.78125 13.4128 9.61004 12.9994 9.3053 12.6947C9.00055 12.39 8.58723 12.2188 8.15625 12.2188ZM16.6875 12.2188C15.8037 12.2188 14.9397 12.4808 14.2048 12.9719C13.4699 13.4629 12.8971 14.1608 12.5589 14.9774C12.2207 15.7939 12.1322 16.6925 12.3046 17.5593C12.477 18.4262 12.9026 19.2224 13.5276 19.8474C14.1526 20.4723 14.9488 20.898 15.8157 21.0704C16.6825 21.2428 17.5811 21.1543 18.3976 20.8161C19.2142 20.4779 19.9121 19.9051 20.4031 19.1702C20.8942 18.4353 21.1562 17.5713 21.1562 16.6875C21.1562 15.5023 20.6854 14.3657 19.8474 13.5276C19.0093 12.6896 17.8727 12.2188 16.6875 12.2188Z" fill="#C4C4C4"/>
</svg>
