<svg width="26" height="26" viewBox="0 0 26 26" fill="none" xmlns="http://www.w3.org/2000/svg">
<path d="M25.6743 12.6956C26.1456 12.1773 26.1001 11.3828 25.5727 10.9216L13.9529 0.754225C13.4255 0.292997 12.5799 0.302659 12.0636 0.776006L0.404374 11.4636C-0.111942 11.937 -0.137283 12.7305 0.348267 13.2352L0.640581 13.5396C1.12554 14.0443 1.90942 14.1045 2.39031 13.6736L3.26166 12.8933V24.3173C3.26166 25.0182 3.82959 25.5857 4.52999 25.5857H9.07479C9.77519 25.5857 10.3431 25.0182 10.3431 24.3173V16.3251H16.1401V24.3173C16.13 25.0177 16.6311 25.5852 17.3315 25.5852H22.1479C22.8483 25.5852 23.4162 25.0177 23.4162 24.3168V13.0541C23.4162 13.0541 23.6569 13.265 23.9538 13.5259C24.2502 13.7864 24.8727 13.5776 25.344 13.0587L25.6743 12.6956Z" fill="#C4C4C4"/>
</svg>
