<svg fill="none" height="26" viewBox="0 0 26 26" width="26" xmlns="http://www.w3.org/2000/svg"><path d="m13 26c7.1797 0 13-5.8203 13-13s-5.8203-13-13-13-13 5.8203-13 13 5.8203 13 13 13z" fill="#2aa81a"/><g fill="#fff"><path d="m17.586 8.41408c-1.0818-1.09402-2.5191-1.76522-4.0523-1.89244-1.5333-.12722-3.0615.29793-4.30877 1.19869s-2.1314 2.21778-2.49276 3.71327c-.36137 1.4955-.17615 3.0709.52221 4.4418l-.68421 3.3218c-.00732.0332-.00761.0676-.00083.1009.00678.0332.02046.0647.04018.0924.02822.0419.06858.0742.11565.0925.04708.0184.09863.0219.14777.0102l3.24996-.7715c1.3672.6801 2.9313.8529 4.4139.4878 1.4827-.365 2.7877-1.2444 3.6828-2.4815.895-1.2371 1.3221-2.7516 1.2051-4.2741-.1169-1.5224-.7703-2.95398-1.8439-4.03982zm-1.0161 8.10272c-.7481.7469-1.7115 1.2404-2.7547 1.4113s-2.1137.0106-3.0611-.4585l-.455-.2258-1.99616.4721v-.0256l.42079-2.0133-.22237-.4379c-.48439-.9499-.65542-2.0289-.48855-3.082s.66306-2.0264 1.41736-2.78c.94713-.94614 2.23113-1.4776 3.56983-1.4776 1.3388 0 2.6228.53146 3.5699 1.4776l.0222.03079c.9349.94911 1.4567 2.22931 1.4519 3.56151s-.5359 2.6085-1.4775 3.5509z"/><path d="m16.3933 15.0526c-.2446.3849-.6329.8553-1.117.9733-.8553.2053-2.157 0-3.7871-1.507l-.0206-.0188c-1.418-1.3239-1.7943-2.4272-1.71048-3.3013.0496-.4977.46358-.9459.81248-1.24011.0555-.04678.1212-.07993.1917-.09681.0706-.01688.1442-.01701.2148-.00039s.1364.04953.1921.09611c.0556.0466.0996.1055.1284.1721l.5251 1.1871c.0343.0765.0472.1608.0372.2439-.0099.0832-.0423.1621-.0936.2282l-.2669.3422c-.0554.071-.0885.1569-.0949.2468s.0142.1796.059.2578c.2535.3735.5568.7108.9015 1.0023.3708.3569.7914.6583 1.2487.8946.0834.0337.175.0417.263.0231s.1686-.0629.2313-.1274l.3062-.3113c.0582-.0627.1327-.108.2151-.1309.0824-.023.1696-.0227.2519.0009l1.2486.3575c.0708.0201.1358.0566.1898.1065.0541.05.0956.1119.1212.1809.0257.0689.0347.1429.0265.216-.0083.0731-.0336.1432-.074.2047z"/></g></svg>