<?xml version="1.0" standalone="no"?>
<!DOCTYPE svg PUBLIC "-//W3C//DTD SVG 20010904//EN"
 "http://www.w3.org/TR/2001/REC-SVG-20010904/DTD/svg10.dtd">
<svg version="1.0" xmlns="http://www.w3.org/2000/svg"
 width="1080.000000pt" height="1080.000000pt" viewBox="0 0 1080.000000 1080.000000"
 preserveAspectRatio="xMidYMid meet">

<g transform="translate(0.000000,1080.000000) scale(0.100000,-0.100000)"
fill="#000000" stroke="none">
<path d="M4597 7693 c-34 -33 -40 -33 1571 -35 l1577 -3 0 -1990 0 -1990
-1995 0 -1995 0 -3 278 c-2 238 -4 277 -17 277 -13 0 -15 -38 -13 -292 l3
-293 2023 -3 2022 -2 -2 2027 -3 2028 -1581 3 c-869 1 -1584 -1 -1587 -5z"/>
<path d="M3540 7380 c0 -17 8 -19 88 -22 l87 -3 0 -1455 0 -1455 -87 -3 c-80
-3 -88 -5 -88 -22 0 -20 9 -20 418 -20 477 0 533 7 683 77 153 73 245 158 318
295 72 136 76 156 76 408 0 208 -2 230 -23 291 -70 203 -267 368 -544 455 -46
15 -87 30 -91 34 -4 4 34 22 85 39 299 104 471 271 524 510 25 112 16 300 -20
406 -62 182 -174 310 -344 395 -164 81 -226 89 -694 90 -379 0 -388 0 -388
-20z m825 -52 c124 -65 219 -206 271 -403 15 -56 19 -107 19 -260 0 -216 -16
-298 -81 -428 -95 -191 -222 -264 -439 -255 l-80 3 -3 688 -2 689 132 -4 c120
-3 138 -6 183 -30z m25 -1423 c87 -47 181 -148 229 -246 67 -138 74 -175 79
-436 4 -261 -5 -338 -57 -468 -56 -140 -136 -236 -239 -287 -42 -20 -63 -23
-199 -26 l-153 -3 0 751 0 752 143 -4 c135 -3 145 -4 197 -33z"/>
<path d="M5660 7380 c0 -18 7 -20 84 -20 l84 0 16 -67 c14 -60 70 -313 201
-913 20 -91 65 -295 100 -455 35 -159 84 -384 109 -500 25 -115 50 -228 56
-250 5 -22 44 -195 86 -385 104 -477 90 -430 130 -430 28 0 34 4 34 20 0 12 7
49 15 83 8 34 24 107 35 162 32 151 49 228 65 303 24 109 205 967 215 1019 5
27 18 91 30 143 18 83 88 412 206 970 19 91 43 178 52 194 30 50 84 86 151 99
47 9 61 16 61 29 0 17 -15 18 -205 18 -198 0 -205 -1 -205 -20 0 -18 7 -20 85
-20 52 0 85 -4 85 -10 0 -6 -7 -39 -15 -73 -8 -34 -44 -204 -80 -377 -36 -173
-77 -366 -91 -428 -14 -62 -40 -187 -59 -278 -19 -90 -51 -239 -70 -332 -20
-92 -40 -187 -45 -212 -5 -25 -19 -88 -30 -140 -12 -52 -27 -126 -35 -165 -29
-141 -46 -220 -50 -224 -7 -6 -9 3 -65 259 -102 470 -164 752 -175 795 -2 11
-29 135 -60 275 -30 140 -57 264 -60 275 -3 11 -16 72 -31 135 -61 278 -94
428 -100 463 l-6 37 86 0 c79 0 86 2 86 20 0 20 -7 20 -345 20 -338 0 -345 0
-345 -20z"/>
<path d="M3900 3985 l0 -215 25 0 25 0 0 215 0 215 -25 0 -25 0 0 -215z"/>
<path d="M5318 3985 l-3 -215 23 0 22 0 0 215 c0 207 -1 215 -20 215 -18 0
-19 -9 -22 -215z"/>
<path d="M7550 4130 c-3 -375 -4 -355 22 -358 l23 -3 -3 216 c-3 206 -4 215
-22 215 -18 0 -20 -7 -20 -70z"/>
<path d="M4021 4153 c23 -45 24 -72 5 -118 l-15 -35 28 15 c50 25 57 94 15
144 -37 45 -57 41 -33 -6z"/>
<path d="M4840 3953 c0 -130 10 -175 40 -181 13 -2 14 19 10 150 -5 149 -6
153 -27 156 -23 3 -23 2 -23 -125z"/>
<path d="M4960 4073 c0 -5 -2 -74 -5 -155 l-6 -148 28 0 28 0 -3 155 c-3 146
-4 155 -22 155 -11 0 -20 -3 -20 -7z"/>
<path d="M6120 4066 c0 -25 62 -281 70 -290 5 -4 11 12 15 37 7 43 -24 204
-47 250 -10 20 -38 23 -38 3z"/>
<path d="M7040 3926 l0 -156 25 0 26 0 -3 153 c-3 149 -3 152 -25 155 l-23 3
0 -155z"/>
<path d="M4404 4049 c-15 -17 -20 -40 -22 -113 -4 -97 6 -139 35 -154 17 -9
18 -1 18 139 0 82 -3 149 -6 149 -3 0 -14 -9 -25 -21z"/>
<path d="M4491 4038 c12 -43 12 -184 -1 -227 -13 -46 -4 -52 26 -18 22 26 24
37 24 131 0 89 -3 105 -20 124 -30 31 -40 27 -29 -10z"/>
<path d="M5694 4049 c-16 -18 -19 -37 -19 -131 0 -103 1 -111 24 -129 30 -25
45 -24 31 0 -5 11 -10 70 -10 131 0 61 5 120 10 131 15 27 -11 26 -36 -2z"/>
<path d="M5782 4040 c5 -17 8 -48 6 -70 -3 -36 -1 -40 19 -40 21 0 23 5 23 50
0 37 -5 55 -20 70 -29 29 -41 25 -28 -10z"/>
<path d="M6668 3932 c1 -75 5 -143 7 -149 2 -7 16 -13 30 -13 19 0 24 4 18 13
-4 6 -10 68 -13 136 -4 109 -7 125 -25 137 -20 13 -20 11 -17 -124z"/>
<path d="M7132 4058 c-16 -16 -15 -35 1 -41 20 -8 39 8 35 28 -4 23 -20 29
-36 13z"/>
<path d="M7456 4054 c-13 -12 -16 -39 -16 -133 0 -102 3 -120 18 -134 10 -10
20 -17 23 -17 2 0 4 68 4 150 0 83 -3 150 -7 150 -4 0 -14 -7 -22 -16z"/>
<path d="M6581 4046 c-16 -19 -7 -46 14 -46 22 0 30 29 13 46 -13 13 -16 13
-27 0z"/>
<path d="M4026 3955 c21 -33 21 -117 0 -150 -22 -33 -20 -37 10 -23 59 27 73
121 25 169 -36 36 -58 38 -35 4z"/>
<path d="M6576 3891 c-23 -26 -18 -89 9 -107 19 -13 20 -11 20 56 0 39 -3 70
-6 70 -3 0 -14 -9 -23 -19z"/>
<path d="M5525 3424 c-9 -9 -14 -21 -12 -27 6 -18 33 -31 51 -24 21 8 21 53 0
61 -21 8 -20 8 -39 -10z"/>
<path d="M5030 3015 l0 -365 665 0 665 0 0 345 0 345 45 0 c38 0 45 3 45 20 0
18 -7 20 -60 20 l-60 0 0 -37 c-1 -21 -2 -175 -3 -343 l-2 -305 -157 -3 -158
-3 0 221 c0 189 -2 220 -15 220 -13 0 -15 -31 -15 -220 l0 -220 -150 0 -150 0
-2 218 -3 217 -49 3 c-67 4 -180 -15 -224 -37 -78 -40 -122 -113 -122 -201 0
-64 21 -115 68 -162 l36 -38 -157 0 -157 0 0 345 c0 338 0 345 -20 345 -20 0
-20 -7 -20 -365z m610 -125 l0 -200 -99 0 -98 0 -45 40 c-57 49 -78 93 -78
159 0 126 91 199 253 200 l67 1 0 -200z"/>
<path d="M5446 3304 c-10 -9 -15 -23 -12 -31 3 -8 6 -17 6 -19 0 -2 11 -4 25
-4 29 0 43 25 28 48 -14 23 -29 25 -47 6z"/>
<path d="M5612 3311 c-8 -4 -12 -19 -10 -32 2 -18 9 -24 28 -24 19 0 26 6 28
24 3 20 -11 41 -28 41 -3 0 -11 -4 -18 -9z"/>
<path d="M4370 3110 c0 -17 7 -20 40 -20 57 0 106 -23 130 -62 18 -29 20 -50
20 -185 l0 -153 -175 0 c-168 0 -175 -1 -175 -20 0 -19 7 -20 195 -20 l195 0
0 163 c0 89 -5 178 -10 197 -19 69 -99 120 -187 120 -26 0 -33 -4 -33 -20z"/>
<path d="M4807 3123 c-4 -3 -7 -137 -7 -298 0 -279 -1 -292 -20 -313 -14 -14
-33 -22 -54 -22 -43 0 -57 -27 -20 -36 38 -10 84 7 108 39 20 27 21 41 24 333
2 253 1 304 -11 304 -7 0 -17 -3 -20 -7z"/>
<path d="M6765 3120 c-146 -22 -228 -107 -227 -236 1 -142 90 -218 268 -231
l86 -6 -6 -45 c-3 -25 -14 -54 -24 -65 -45 -50 -125 -61 -200 -27 -39 18 -43
18 -49 3 -9 -22 19 -40 82 -54 58 -13 126 -2 170 27 31 21 55 73 55 123 l0 41
135 0 135 0 -2 238 c-3 203 -5 237 -18 237 -13 0 -15 -32 -18 -217 l-2 -218
-115 0 -115 0 0 220 0 220 -52 -1 c-29 -1 -75 -5 -103 -9z m123 -234 l2 -198
-89 4 c-77 3 -96 8 -138 34 -33 20 -55 43 -70 74 -73 144 49 294 232 287 l60
-2 3 -199z"/>
<path d="M5875 2509 c-10 -30 19 -53 47 -38 29 15 20 53 -14 57 -20 2 -28 -2
-33 -19z"/>
<path d="M6041 2517 c-18 -23 -2 -49 28 -45 20 2 26 8 26 28 0 29 -34 40 -54
17z"/>
<path d="M7147 2524 c-4 -4 -7 -18 -7 -31 0 -21 4 -24 28 -21 21 2 27 8 27 28
0 18 -6 26 -20 28 -12 2 -24 0 -28 -4z"/>
</g>
</svg>
